<svg id="svg" xmlns="http://www.w3.org/2000/svg" xmlns:xlink="http://www.w3.org/1999/xlink" width="400" height="400" viewBox="0, 0, 400,400"><g id="svgg"><path id="path0" d="M115.234 105.984 C 90.375 111.300,69.017 132.642,64.149 157.031 C 62.414 165.727,53.125 246.168,53.125 252.502 C 53.125 291.133,99.576 309.977,126.955 282.453 C 134.669 274.698,136.873 269.814,140.622 252.160 C 143.058 240.690,143.980 237.641,145.348 236.533 C 147.811 234.538,148.123 234.719,150.254 239.373 C 159.134 258.770,188.256 258.279,195.769 238.607 C 197.750 233.422,202.250 233.422,204.231 238.607 C 210.328 254.572,232.498 258.856,244.890 246.464 C 247.770 243.584,250.781 238.419,250.781 236.359 C 250.781 234.759,252.556 234.835,254.637 236.523 C 255.986 237.619,256.933 240.763,259.396 252.337 C 263.048 269.495,265.204 274.430,272.360 282.016 C 298.886 310.135,346.875 291.394,346.875 252.915 C 346.875 245.356,337.461 164.641,335.580 156.072 C 330.204 131.581,309.179 111.056,284.213 105.925 C 275.430 104.120,123.704 104.173,115.234 105.984 M155.610 128.711 C 156.031 149.472,153.703 148.438,200.000 148.438 C 246.297 148.438,243.969 149.472,244.390 128.711 L 244.639 116.406 261.187 116.434 C 278.346 116.463,282.038 116.937,290.663 120.220 C 306.122 126.103,319.563 141.249,323.731 157.481 C 325.888 165.879,335.342 247.319,334.984 254.418 C 333.638 281.118,300.576 293.348,281.521 274.193 C 275.864 268.506,273.998 264.064,270.704 248.438 C 266.696 229.423,263.278 224.514,253.186 223.279 C 251.715 223.098,251.035 222.266,250.128 219.535 C 243.611 199.921,212.687 199.673,204.606 219.170 C 201.963 225.548,198.037 225.548,195.394 219.170 C 187.313 199.674,156.407 199.920,149.869 219.532 C 148.837 222.629,148.378 223.093,145.964 223.486 C 136.371 225.045,133.296 229.602,129.399 248.033 C 126.043 263.904,123.938 268.906,118.257 274.506 C 99.201 293.293,66.341 280.894,65.019 254.418 C 64.662 247.259,74.119 165.779,76.277 157.422 C 80.166 142.362,91.820 128.405,106.149 121.644 C 115.630 117.171,119.770 116.505,138.423 116.453 L 155.361 116.406 155.610 128.711 M232.813 126.563 L 232.813 136.719 200.000 136.719 L 167.188 136.719 167.188 126.563 L 167.188 116.406 200.000 116.406 L 232.813 116.406 232.813 126.563 M118.777 137.739 C 114.078 139.358,112.500 142.763,112.500 151.287 L 112.500 158.594 105.273 158.597 C 93.204 158.602,90.625 161.420,90.625 174.609 C 90.625 187.834,92.589 190.114,104.308 190.499 L 112.362 190.763 112.626 198.817 C 113.011 210.536,115.291 212.500,128.516 212.500 C 141.705 212.500,144.523 209.921,144.528 197.852 L 144.531 190.625 151.758 190.622 C 163.828 190.617,166.406 187.799,166.406 174.609 C 166.406 161.420,163.828 158.602,151.758 158.597 L 144.531 158.594 144.531 151.287 C 144.531 139.362,141.706 136.807,128.516 136.807 C 124.648 136.807,120.266 137.227,118.777 137.739 M261.746 137.739 C 257.046 139.358,255.469 142.763,255.469 151.287 L 255.469 158.594 248.242 158.597 C 236.172 158.602,233.594 161.420,233.594 174.609 C 233.594 187.854,235.549 190.114,247.346 190.501 L 255.469 190.767 255.472 197.923 C 255.477 209.913,258.318 212.500,271.484 212.500 C 284.674 212.500,287.492 209.921,287.497 197.852 L 287.500 190.625 294.727 190.622 C 306.796 190.617,309.375 187.799,309.375 174.609 C 309.375 161.420,306.796 158.602,294.727 158.597 L 287.500 158.594 287.500 151.287 C 287.500 139.362,284.675 136.807,271.484 136.807 C 267.617 136.807,263.235 137.227,261.746 137.739 M132.815 155.664 C 132.820 167.570,135.592 170.313,147.617 170.313 L 154.688 170.313 154.688 174.609 L 154.688 178.906 147.461 178.909 C 135.555 178.914,132.813 181.686,132.813 193.711 L 132.813 200.781 128.516 200.781 L 124.219 200.781 124.216 193.555 C 124.211 181.706,121.304 178.906,109.009 178.906 L 102.344 178.906 102.344 174.609 L 102.344 170.313 109.414 170.313 C 121.439 170.313,124.211 167.570,124.216 155.664 L 124.219 148.438 128.516 148.438 L 132.813 148.438 132.815 155.664 M275.784 155.664 C 275.789 167.570,278.561 170.313,290.586 170.313 L 297.656 170.313 297.656 174.609 L 297.656 178.906 290.430 178.909 C 278.524 178.914,275.781 181.686,275.781 193.711 L 275.781 200.781 271.484 200.781 L 267.188 200.781 267.188 193.711 C 267.188 181.686,264.445 178.914,252.539 178.909 L 245.313 178.906 245.313 174.609 L 245.313 170.313 252.383 170.313 C 264.408 170.313,267.180 167.570,267.185 155.664 L 267.188 148.438 271.484 148.438 L 275.781 148.438 275.784 155.664 M187.074 190.199 C 184.730 192.542,184.628 195.211,186.775 197.942 C 191.114 203.457,214.844 200.243,214.844 194.141 C 214.844 188.129,192.338 184.934,187.074 190.199 M180.507 218.778 C 181.884 219.757,183.702 222.125,184.549 224.039 C 190.290 237.017,173.683 248.058,163.596 237.971 C 152.544 226.919,167.732 209.681,180.507 218.778 M233.697 218.162 C 241.157 222.247,242.129 233.746,235.457 238.994 C 224.615 247.522,209.880 236.238,215.551 223.751 C 218.827 216.538,226.447 214.191,233.697 218.162 " stroke="none" fill="#000000" fill-rule="evenodd"></path></g></svg>