<svg id="svg" xmlns="http://www.w3.org/2000/svg" xmlns:xlink="http://www.w3.org/1999/xlink" width="400" height="400" viewBox="0, 0, 400,400"><g id="svgg"><path id="path0" d="M350.923 1.954 C 348.607 3.903,348.258 3.987,347.041 2.890 C 340.798 -2.736,332.332 5.442,337.201 12.394 C 338.418 14.131,338.354 14.313,335.487 17.249 L 332.508 20.299 330.852 18.743 C 325.208 13.441,317.080 20.525,320.870 27.444 L 322.459 30.345 319.452 33.280 C 316.660 36.007,316.348 36.127,315.059 34.966 C 308.261 28.839,300.239 37.623,305.879 45.017 L 307.851 47.603 303.207 56.867 L 298.563 66.132 264.042 99.347 L 229.521 132.562 224.347 129.092 C 187.122 104.131,146.930 113.961,130.534 152.037 C 117.946 181.269,115.978 182.955,87.250 189.125 C 55.686 195.904,40.859 202.855,25.763 217.951 C -13.756 257.470,-7.829 308.639,42.035 358.428 C 91.536 407.854,142.525 413.604,182.045 374.219 C 197.122 359.193,204.092 344.331,210.875 312.750 C 216.783 285.244,220.310 280.711,242.727 271.819 C 285.436 254.879,297.173 214.822,270.906 175.651 L 267.435 170.475 300.624 135.970 L 333.813 101.465 343.105 96.807 L 352.397 92.149 354.983 94.121 C 362.377 99.761,371.161 91.739,365.034 84.941 C 363.873 83.652,363.993 83.340,366.720 80.548 L 369.655 77.541 372.556 79.130 C 379.475 82.920,386.559 74.792,381.257 69.148 L 379.701 67.492 382.751 64.513 C 385.687 61.646,385.869 61.582,387.606 62.799 C 394.555 67.666,402.537 59.353,397.053 52.959 C 396.026 51.763,396.131 51.353,398.046 49.077 C 402.193 44.149,400.181 28.806,394.120 19.141 C 384.754 4.205,359.967 -5.657,350.923 1.954 M370.789 16.050 C 378.652 19.844,385.274 28.816,386.333 37.109 L 386.832 41.016 367.830 59.785 L 348.828 78.554 340.023 82.811 L 331.218 87.069 322.074 77.926 L 312.931 68.782 317.189 59.977 L 321.446 51.172 340.215 32.170 L 358.984 13.168 362.891 13.646 C 365.039 13.909,368.593 14.991,370.789 16.050 M312.067 88.239 L 319.808 96.008 303.757 112.653 C 294.930 121.807,271.309 146.348,251.267 167.188 C 231.225 188.027,214.567 205.158,214.250 205.257 C 213.932 205.355,212.617 203.655,211.328 201.479 C 208.585 196.850,202.527 190.889,197.845 188.214 C 196.030 187.177,194.629 186.071,194.733 185.757 C 194.968 185.045,303.364 80.559,303.921 80.507 C 304.144 80.486,307.810 83.965,312.067 88.239 M196.292 130.790 C 201.210 132.128,210.044 136.276,215.738 139.922 L 219.367 142.245 199.042 161.943 L 178.717 181.641 173.929 182.192 C 146.833 185.312,129.781 208.723,136.320 233.826 C 148.031 278.788,212.418 273.245,217.724 226.817 L 218.359 221.262 237.778 201.256 C 248.458 190.253,257.441 181.250,257.739 181.250 C 258.036 181.250,259.699 183.623,261.434 186.523 C 279.954 217.489,271.149 245.205,238.544 258.574 C 210.092 270.239,204.243 277.595,197.212 310.547 C 187.553 355.816,165.775 380.747,131.277 386.028 C 82.382 393.513,6.487 317.618,13.972 268.723 C 19.260 234.178,44.123 212.460,89.453 202.788 C 122.659 195.703,129.749 189.991,141.825 160.595 C 152.135 135.497,172.543 124.329,196.292 130.790 M188.403 198.782 C 212.227 210.539,207.236 245.839,181.065 250.677 C 162.856 254.043,145.957 237.144,149.323 218.935 C 152.649 200.945,172.275 190.824,188.403 198.782 M64.968 264.532 C 58.273 269.222,59.253 270.594,94.332 305.628 C 129.163 340.414,130.451 341.351,135.169 335.354 C 138.929 330.573,139.574 331.392,104.091 295.909 C 68.967 260.785,69.597 261.290,64.968 264.532 " stroke="none" fill="#000000" fill-rule="evenodd"></path></g></svg>